<?xml version="1.0" encoding="utf-8"?>
<!-- Generator: Adobe Illustrator 18.0.0, SVG Export Plug-In . SVG Version: 6.00 Build 0)  -->
<!DOCTYPE svg PUBLIC "-//W3C//DTD SVG 1.1//EN" "http://www.w3.org/Graphics/SVG/1.1/DTD/svg11.dtd">
<svg version="1.1" id="Layer_1" xmlns="http://www.w3.org/2000/svg" xmlns:xlink="http://www.w3.org/1999/xlink" x="0px" y="0px"
	 viewBox="16 575.9 612 504.1" enable-background="new 16 575.9 612 504.1" xml:space="preserve">
<path fill="#45A2B6" d="M535.7,605.1c-10.5-10.5-27.6-10.5-38.2,0c-10.5,10.5-10.5,27.6,0,38.2c49.4,49.3,76.5,114.8,76.5,184.6
	s-27.1,135.3-76.4,184.6c-10.5,10.5-10.5,27.6,0,38.2c5.3,5.3,12.2,7.9,19.1,7.9c6.9,0,13.8-2.6,19.1-7.9
	c59.4-59.6,92.2-138.8,92.2-222.8S595.2,664.7,535.7,605.1z"/>
<path fill="#45A2B6" d="M241.7,584.1L106,719.9H16v216h90l135.7,135.7c14.4,14.4,26.3,9.5,26.3-10.9V595
	C268,574.5,256.2,569.7,241.7,584.1z"/>
<path fill="#45A2B6" d="M343.9,707c-10.5-10.5-27.6-10.5-38.2,0s-10.5,27.6,0,38.2c45.6,45.6,45.6,119.8,0,165.5
	c-10.5,10.5-10.5,27.6,0,38.2c5.3,5.3,12.2,7.9,19.1,7.9s13.8-2.6,19.1-7.9C410.6,882.1,410.6,773.7,343.9,707z"/>
<path fill="#45A2B6" d="M439.8,656c-10.5-10.5-27.6-10.5-38.2,0c-10.5,10.5-10.5,27.6,0,38.2c73.7,73.7,73.7,193.6,0,267.3
	c-10.5,10.5-10.5,27.6,0,38.2c5.3,5.3,12.2,7.9,19.1,7.9s13.8-2.6,19.1-7.9c45.9-46,71.2-107,71.2-171.9S485.7,702,439.8,656z"/>
</svg>
